<?xml version="1.0" encoding="UTF-8"?>
<svg version="1.1" xmlns="http://www.w3.org/2000/svg" width="320" height="320">
<path d="M0 0 C105.6 0 211.2 0 320 0 C320 105.6 320 211.2 320 320 C214.4 320 108.8 320 0 320 C0 214.4 0 108.8 0 0 Z " fill="#446FF0" transform="translate(0,0)"/>
<path d="M0 0 C105.6 0 211.2 0 320 0 C320 105.6 320 211.2 320 320 C214.4 320 108.8 320 0 320 C0 214.4 0 108.8 0 0 Z M41.1796875 50.96875 C36.98254722 56.11499235 34.96561785 61.71531153 33 68 C32.72285156 68.82628906 32.44570313 69.65257812 32.16015625 70.50390625 C25.88871488 89.94225438 26.84596735 110.88416895 26.8671875 131.06640625 C26.86651185 133.35790517 26.86553965 135.64940403 26.86428833 137.94090271 C26.86282395 142.71541026 26.86492524 147.48989896 26.86962891 152.2644043 C26.87532865 158.34155305 26.87203753 164.41865764 26.86605644 170.49580479 C26.86241938 175.21880925 26.86360373 179.94180348 26.86618423 184.66480827 C26.86684466 186.90399112 26.86605655 189.14317494 26.86370468 191.38235664 C26.1306476 236.23009522 26.1306476 236.23009522 46.375 274.8125 C63.76191906 290.89444059 89.02433308 293.13680083 111.70996094 293.16113281 C112.83675766 293.16609772 113.96355438 293.17106262 115.12449646 293.17617798 C118.8277957 293.19070029 122.53105203 293.19758715 126.234375 293.203125 C128.14874233 293.20736607 128.14874233 293.20736607 130.10178375 293.21169281 C136.16944512 293.22511374 142.23708768 293.23501732 148.3047626 293.2388947 C155.23955076 293.24335388 162.1741397 293.26081324 169.10886741 293.2898953 C175.17006496 293.31440449 181.23118248 293.32185293 187.29242706 293.32357025 C189.84205455 293.3265637 192.39168188 293.33447756 194.94127655 293.34775543 C222.16199992 293.47932959 254.20725437 293.1569032 275.171875 272.96875 C277.79232185 270.14673031 280.02624098 267.30678283 282 264 C282.34546875 263.43152344 282.6909375 262.86304688 283.046875 262.27734375 C295.16656589 240.32205757 293.16055415 211.68786868 293.203125 187.390625 C293.20595238 186.28399254 293.20877975 185.17736008 293.21169281 184.0371933 C293.22658175 178.17469556 293.23587478 172.31222176 293.24023438 166.44970703 C293.24460834 161.67130859 293.25847295 156.89309179 293.28125 152.11474609 C295.30425204 106.14634773 295.30425204 106.14634773 285 62 C284.63132812 61.16339844 284.26265625 60.32679687 283.8828125 59.46484375 C276.87018392 45.36704216 264.65755378 37.43658516 250.3359375 32.04296875 C242.33230008 29.54066056 234.44244511 28.50128387 226.09277344 27.89379883 C224.39134501 27.76757377 224.39134501 27.76757377 222.65554428 27.63879871 C210.27619669 26.78655919 197.91935744 26.69075649 185.515625 26.69921875 C183.07200043 26.69531365 180.62837651 26.6909754 178.18475342 26.68623352 C173.11256691 26.67885369 168.04045013 26.67900358 162.96826172 26.68432617 C156.53202509 26.69013661 150.09607477 26.67311088 143.65988541 26.6499815 C138.63039539 26.63512157 133.60097262 26.63438854 128.57146454 26.63749123 C126.2004718 26.63698504 123.82947456 26.63188301 121.45850372 26.62167931 C91.59158072 26.50877496 62.63431151 27.7646073 41.1796875 50.96875 Z " fill="#FDFEFE" transform="translate(0,0)"/>
<path d="M0 0 C8.52786707 4.01311392 13.42666752 12.4466889 17.9140625 20.35546875 C20.55237946 24.99311452 23.28381031 29.57024062 26.0625 34.125 C26.55709717 34.96716064 27.05169434 35.80932129 27.5612793 36.67700195 C28.04765869 37.46679443 28.53403809 38.25658691 29.03515625 39.0703125 C29.4619165 39.77945801 29.88867676 40.48860352 30.32836914 41.21923828 C33.48275593 44.57955626 37.17951427 44.94229624 41.63110352 45.25537109 C42.95037842 45.26133301 44.26965332 45.26729492 45.62890625 45.2734375 C47.09050261 45.29371463 48.55209112 45.31456517 50.01367188 45.3359375 C52.29360665 45.35856224 54.57322941 45.37502744 56.85327148 45.38085938 C59.070707 45.39039981 61.28677805 45.42417191 63.50390625 45.4609375 C64.82205322 45.46915527 66.1402002 45.47737305 67.49829102 45.48583984 C71.51583961 46.07574135 73.15711171 47.16075771 76 50 C77.60729993 53.21459986 77.61930855 56.52388103 77 60 C74.5625 62.9375 74.5625 62.9375 72 65 C71.67 65.33 71.34 65.66 71 66 C68.31690779 66.13856973 65.66153004 66.21322401 62.9765625 66.23828125 C62.16061615 66.246353 61.3446698 66.25442474 60.5039978 66.26274109 C58.76717262 66.27660946 57.03031986 66.28731923 55.29345703 66.29516602 C52.67034522 66.31220544 50.04855203 66.35604187 47.42578125 66.40039062 C36.38188898 66.50414086 26.49037827 66.26568109 17.8125 58.5625 C13.46756781 53.78395951 10.25778373 48.31358627 7.02197266 42.74951172 C5.28078795 39.7687832 3.48545885 36.82170111 1.6875 33.875 C1.05199219 32.82054687 0.41648438 31.76609375 -0.23828125 30.6796875 C-1.71083781 28.43983429 -3.08843573 26.83265726 -5 25 C-7.56057368 29.97580079 -10.11991556 34.95223269 -12.67822266 39.92919922 C-13.54476406 41.61458544 -14.41161505 43.29981252 -15.27880859 44.98486328 C-20.01510892 54.18854306 -24.73228201 63.39986694 -29.3347168 72.67138672 C-41.02465386 96.19385969 -41.02465386 96.19385969 -49 99 C-54.44575253 99.91371687 -58.18743792 99.80138374 -62.83203125 96.6640625 C-67.98845246 92.57300254 -71.28052592 87.29512779 -74.8125 81.8125 C-76.10795171 79.83805291 -77.40601908 77.86531884 -78.70703125 75.89453125 C-79.2688208 75.02675049 -79.83061035 74.15896973 -80.40942383 73.26489258 C-82.73902422 69.94767035 -84.11035615 68.29654795 -88 67 C-90.52538161 66.88224365 -93.02833616 66.81494981 -95.5546875 66.7890625 C-97.07162537 66.76099366 -98.58855231 66.73232919 -100.10546875 66.703125 C-102.4907195 66.66188996 -104.87576629 66.62499153 -107.26123047 66.59863281 C-109.5678081 66.57095197 -111.87346654 66.52508514 -114.1796875 66.4765625 C-114.88817841 66.47330963 -115.59666931 66.47005676 -116.32662964 66.46670532 C-120.70879114 66.35845587 -123.52094537 65.69974639 -127 63 C-129.45665197 59.31502204 -129.70086491 56.28028214 -129 52 C-127.20636089 49.1899654 -125.98119065 47.49059532 -123 46 C-120.28449208 45.86425269 -117.5959852 45.78724209 -114.87890625 45.76171875 C-114.06437485 45.753647 -113.24984344 45.74557526 -112.41062927 45.73725891 C-110.67978038 45.72340865 -108.94890406 45.71269072 -107.21801758 45.70483398 C-105.46370331 45.69338264 -103.70942197 45.67304105 -101.95532227 45.64331055 C-89.70785173 45.4357263 -78.03914513 45.24671986 -68.56884766 54.22021484 C-65.5424472 57.65352628 -63.11642123 61.44421805 -60.6875 65.3125 C-59.65378788 66.9361782 -58.61622018 68.55741027 -57.57421875 70.17578125 C-57.12651123 70.88645752 -56.67880371 71.59713379 -56.2175293 72.3293457 C-55.08867103 74.14710028 -55.08867103 74.14710028 -53 75 C-52.7421875 74.33226562 -52.484375 73.66453125 -52.21875 72.9765625 C-47.73190518 62.01830689 -42.28464671 51.47182421 -36.71728516 41.03222656 C-34.35634849 36.60037232 -32.06386434 32.14732235 -29.85864258 27.63598633 C-15.53077961 -1.65629643 -15.53077961 -1.65629643 0 0 Z " fill="#FBFBFD" transform="translate(186,144)"/>
<path d="M0 0 C15.84 0.33 31.68 0.66 48 1 C48 2.32 48 3.64 48 5 C17.64 5 -12.72 5 -44 5 C-44 4.67 -44 4.34 -44 4 C-38.63004625 2.22763542 -33.85882792 1.6701389 -28.22265625 1.5859375 C-27.41130722 1.56657135 -26.59995819 1.5472052 -25.76402283 1.5272522 C-23.19695228 1.46793034 -20.62983571 1.42126264 -18.0625 1.375 C-16.31183044 1.33677648 -14.56117881 1.29772226 -12.81054688 1.2578125 C-8.54051184 1.16226844 -4.2703889 1.07806463 0 1 C0 0.67 0 0.34 0 0 Z " fill="#6D6CED" transform="translate(144,288)"/>
<path d="M0 0 C0.92185593 -0.00175232 1.84371185 -0.00350464 2.79350281 -0.00531006 C5.81141092 -0.0096754 8.82925936 -0.00680796 11.84716797 -0.00341797 C13.9693096 -0.00409288 16.09145116 -0.00506446 18.21359253 -0.00631714 C22.65330748 -0.00778722 27.09300225 -0.00566305 31.53271484 -0.00097656 C37.1807219 0.00469932 42.8286812 0.00145091 48.47668648 -0.00454903 C52.85914458 -0.00819123 57.24159168 -0.00699902 61.62405014 -0.00442123 C63.70414104 -0.00376096 65.78423299 -0.00454839 67.86432266 -0.00690079 C101.08440926 -0.03621366 101.08440926 -0.03621366 111.21435547 3.12939453 C111.21435547 3.45939453 111.21435547 3.78939453 111.21435547 4.12939453 C109.33943854 4.15669915 107.46440322 4.17592697 105.58935547 4.19189453 C104.54521484 4.20349609 103.50107422 4.21509766 102.42529297 4.22705078 C99.21435547 4.12939453 99.21435547 4.12939453 96.70455933 3.63612366 C91.85163739 2.93154679 87.05820662 2.95130788 82.16015625 2.92407227 C81.05712662 2.91417267 79.95409698 2.90427307 78.81764221 2.89407349 C75.18167243 2.862555 71.54568959 2.83773919 67.90966797 2.81298828 C65.38475205 2.79241043 62.85983952 2.77141374 60.33493042 2.75001526 C54.37464642 2.70051203 48.4143399 2.65522454 42.45400798 2.6119929 C35.66557532 2.56251859 28.87718969 2.50763844 22.08880258 2.4523133 C8.13069748 2.33867584 -5.82745282 2.23179748 -19.78564453 2.12939453 C-19.78564453 1.79939453 -19.78564453 1.46939453 -19.78564453 1.12939453 C-13.16721537 0.36037126 -6.66068214 -0.01593835 0 0 Z " fill="#1A6FF0" transform="translate(124.78564453125,26.87060546875)"/>
<path d="M0 0 C1.15822266 -0.00773437 2.31644531 -0.01546875 3.50976562 -0.0234375 C4.63189453 -0.02085937 5.75402344 -0.01828125 6.91015625 -0.015625 C7.92343994 -0.01336914 8.93672363 -0.01111328 9.98071289 -0.00878906 C13.21653634 0.2744223 15.90475894 1.11311019 18.9375 2.25 C18.9375 2.58 18.9375 2.91 18.9375 3.25 C6.0675 3.25 -6.8025 3.25 -20.0625 3.25 C-20.0625 2.92 -20.0625 2.59 -20.0625 2.25 C-13.42435215 -0.1849538 -7.01144805 -0.04697788 0 0 Z " fill="#7178F1" transform="translate(120.0625,289.75)"/>
<path d="M0 0 C2.30151367 0.13867188 2.30151367 0.13867188 5.30151367 2.13867188 C4.97151367 2.79867187 4.64151367 3.45867187 4.30151367 4.13867188 C-6.58848633 3.80867187 -17.47848633 3.47867188 -28.69848633 3.13867188 C-28.69848633 2.47867188 -28.69848633 1.81867188 -28.69848633 1.13867188 C-24.46938115 0.97042052 -20.24019314 0.80434753 -16.01098633 0.63867188 C-14.81280273 0.59097656 -13.61461914 0.54328125 -12.38012695 0.49414062 C-11.22319336 0.44902344 -10.06625977 0.40390625 -8.87426758 0.35742188 C-7.27965698 0.29458008 -7.27965698 0.29458008 -5.65283203 0.23046875 C-3.76789898 0.17190046 -1.8833576 0.09678342 0 0 Z " fill="#6675ED" transform="translate(252.698486328125,186.861328125)"/>
<path d="M0 0 C26.11227154 -0.40241514 26.11227154 -0.40241514 37 3 C37 3.33 37 3.66 37 4 C35.12508307 4.02730462 33.25004775 4.04653244 31.375 4.0625 C29.80878906 4.07990234 29.80878906 4.07990234 28.2109375 4.09765625 C25 4 25 4 22.25 3.53125 C17.72216231 2.79112269 13.20427638 2.63674098 8.625 2.4375 C7.69816406 2.39431641 6.77132812 2.35113281 5.81640625 2.30664062 C3.54439706 2.20123814 1.27229075 2.09911394 -1 2 C-0.67 1.34 -0.34 0.68 0 0 Z " fill="#2777F2" transform="translate(199,27)"/>
<path d="M0 0 C0.66 0.33 1.32 0.66 2 1 C0.1875 3 0.1875 3 -2 5 C-2.99 5 -3.98 5 -5 5 C-5.020625 5.598125 -5.04125 6.19625 -5.0625 6.8125 C-6 9 -6 9 -9 10.75 C-13.29437614 12.40168313 -17.46382847 12.27772479 -22 12 C-19.39901273 10.69626144 -16.79232991 9.40520139 -14.1796875 8.125 C-12.74473837 7.41677465 -11.30984406 6.70843821 -9.875 6 C-8.78251953 5.46632813 -8.78251953 5.46632813 -7.66796875 4.921875 C-6.62189453 4.40367187 -6.62189453 4.40367187 -5.5546875 3.875 C-4.92030762 3.56304687 -4.28592773 3.25109375 -3.63232422 2.9296875 C-1.81175946 1.98808328 -1.81175946 1.98808328 0 0 Z " fill="#D5D9F8" transform="translate(270,276)"/>
<path d="M0 0 C0.33 0 0.66 0 1 0 C2.83292414 6.40766041 3.04559253 11.41276707 2 18 C1.01 18.33 0.02 18.66 -1 19 C-1.02705308 16.58325776 -1.04686438 14.1668206 -1.0625 11.75 C-1.07087891 11.06808594 -1.07925781 10.38617188 -1.08789062 9.68359375 C-1.10428392 6.30657446 -1.05628768 3.22708361 0 0 Z " fill="#2674F1" transform="translate(28,103)"/>
<path d="M0 0 C1.32 0.33 2.64 0.66 4 1 C0.96814863 9.48918384 -2.58052053 16.77402738 -8 24 C-8.33 23.01 -8.66 22.02 -9 21 C-7.85546875 18.87890625 -7.85546875 18.87890625 -6.1875 16.5625 C-3.18036503 12.3410825 -0.89813517 8.9813517 -0.375 3.75 C-0.25125 2.5125 -0.1275 1.275 0 0 Z " fill="#756AEC" transform="translate(284,248)"/>
<path d="M0 0 C2.60018816 3.90028225 2.15085514 7.47434569 2 12 C1.401875 11.814375 0.80375 11.62875 0.1875 11.4375 C-2.16408762 10.77906313 -2.16408762 10.77906313 -5 12 C-3.68938409 7.76570244 -2.05643741 3.92592596 0 0 Z " fill="#5E72EC" transform="translate(166,196)"/>
<path d="M0 0 C0.33 0 0.66 0 1 0 C0.7834375 1.5159375 0.7834375 1.5159375 0.5625 3.0625 C-0.27485523 9.67760635 -0.59286563 16.34725122 -1 23 C-1.66 23 -2.32 23 -3 23 C-3.32098157 14.64259099 -3.21819111 7.77729519 0 0 Z " fill="#2273F2" transform="translate(33,69)"/>
<path d="M0 0 C2.0625 1.75 2.0625 1.75 4 4 C3.75 6.25 3.75 6.25 3 8 C0.69 8.33 -1.62 8.66 -4 9 C-2.94124926 5.59687262 -1.99097846 2.98646769 0 0 Z " fill="#5376F0" transform="translate(181,168)"/>
<path d="M0 0 C0.73605469 0.00451172 1.47210938 0.00902344 2.23046875 0.01367188 C4.02868158 0.02534858 5.82685197 0.04327989 7.625 0.0625 C7.625 0.3925 7.625 0.7225 7.625 1.0625 C4.325 1.0625 1.025 1.0625 -2.375 1.0625 C-2.375 1.7225 -2.375 2.3825 -2.375 3.0625 C-6.335 2.7325 -10.295 2.4025 -14.375 2.0625 C-14.375 1.7325 -14.375 1.4025 -14.375 1.0625 C-9.51770355 0.08950844 -4.9249375 -0.05788805 0 0 Z " fill="#5292F4" transform="translate(107.375,26.9375)"/>
<path d="M0 0 C5.28 0 10.56 0 16 0 C10.29371491 2.85314255 6.22715575 3.33439052 0 2 C0 1.34 0 0.68 0 0 Z " fill="#1F6FF0" transform="translate(84,29)"/>
<path d="M0 0 C1.32 0.33 2.64 0.66 4 1 C3.34 3.31 2.68 5.62 2 8 C-0.1519437 4.77208445 -0.20086443 3.71599191 0 0 Z " fill="#7E74F0" transform="translate(284,248)"/>
<path d="M0 0 C1.32 0 2.64 0 4 0 C4.33 1.98 4.66 3.96 5 6 C3.2925002 4.71937515 1.62626404 3.38232443 0 2 C0 1.34 0 0.68 0 0 Z " fill="#5F73F0" transform="translate(46,272)"/>
<path d="M0 0 C0.66 1.32 1.32 2.64 2 4 C1.01 4.495 1.01 4.495 0 5 C0 5.66 0 6.32 0 7 C-0.99 7.33 -1.98 7.66 -3 8 C-1.125 2.25 -1.125 2.25 0 0 Z " fill="#6F88F0" transform="translate(166,196)"/>
</svg>
